<svg width="274" height="273" viewBox="0 0 274 273" fill="none" xmlns="http://www.w3.org/2000/svg">
    <g clip-path="url(#clip0_2_29)">
        <rect width="273" height="273" transform="translate(0.0698853)" fill="#1D63DC" />
        <rect width="27.4475" height="76" transform="matrix(-1 0 0 1 50.4475 174)" fill="white" />
        <rect width="27.4475" height="76" transform="matrix(-1 0 0 1 101.276 174)" fill="white" />
        <rect width="27.4475" height="93" transform="matrix(-1 0 0 1 152.105 157)" fill="white" />
        <rect width="26.431" height="111" transform="matrix(-1 0 0 1 201.917 139)" fill="white" />
        <rect width="27.3266" height="169" transform="matrix(-1 0 0 1 253 81)" fill="white" />
        <mask id="path-6-outside-1_2_29" maskUnits="userSpaceOnUse" x="16.2499" y="-6" width="302"
            height="207" fill="black">
            <rect fill="white" x="16.2499" y="-6" width="302" height="207" />
            <path
                d="M252.64 72H223.612C215.96 99.5364 178.523 143.606 141.25 161C96.0787 182.08 43.0832 178.667 23.2499 172.5C49.2499 171.167 106.75 162.8 128.75 140C150.479 117.481 161.312 85.6276 164.144 72H134.86L193.75 24L252.64 72Z" />
        </mask>
        <path
            d="M252.64 72H223.612C215.96 99.5364 178.523 143.606 141.25 161C96.0787 182.08 43.0832 178.667 23.2499 172.5C49.2499 171.167 106.75 162.8 128.75 140C150.479 117.481 161.312 85.6276 164.144 72H134.86L193.75 24L252.64 72Z"
            fill="white" />
        <path
            d="M252.64 72V95H317.262L267.171 54.1719L252.64 72ZM223.612 72V49H206.132L201.452 65.8417L223.612 72ZM23.2499 172.5L22.0719 149.53L16.4211 194.463L23.2499 172.5ZM128.75 140L112.199 124.03L112.199 124.03L128.75 140ZM164.144 72L186.663 76.681L192.417 49H164.144V72ZM134.86 72L120.329 54.1719L70.2382 95H134.86V72ZM193.75 24L208.281 6.17194L193.75 -5.67233L179.219 6.17194L193.75 24ZM252.64 72V49H223.612V72V95H252.64V72ZM223.612 72L201.452 65.8417C198.996 74.6808 190.367 89.4512 176.446 104.915C162.828 120.04 146.543 133.149 131.524 140.158L141.25 161L150.976 181.842C173.231 171.457 194.3 153.834 210.632 135.692C226.661 117.888 240.576 96.8557 245.772 78.1583L223.612 72ZM141.25 161L131.524 140.158C112.346 149.107 90.9195 153.082 71.6617 153.993C52.0932 154.919 36.7179 152.601 30.0787 150.537L23.2499 172.5L16.4211 194.463C29.6152 198.565 50.6543 201.038 73.8347 199.942C97.3257 198.831 124.983 193.973 150.976 181.842L141.25 161ZM23.2499 172.5L24.4278 195.47C38.6631 194.74 61.0435 192.138 83.0932 186.61C103.988 181.371 129.48 172.367 145.301 155.97L128.75 140L112.199 124.03C106.02 130.433 91.7618 137.012 71.9065 141.99C53.2062 146.679 33.8367 148.927 22.0719 149.53L23.2499 172.5ZM128.75 140L145.301 155.97C171.106 129.227 183.32 92.764 186.663 76.681L164.144 72L141.626 67.319C139.303 78.4912 129.852 105.734 112.199 124.03L128.75 140ZM164.144 72V49H134.86V72V95H164.144V72ZM134.86 72L149.392 89.8281L208.281 41.8281L193.75 24L179.219 6.17194L120.329 54.1719L134.86 72ZM193.75 24L179.219 41.8281L238.108 89.8281L252.64 72L267.171 54.1719L208.281 6.17194L193.75 24Z"
            fill="#1D63DC" mask="url(#path-6-outside-1_2_29)" />
    </g>
    <defs>
        <clipPath id="clip0_2_29">
            <rect width="273" height="273" fill="white" transform="translate(0.0698853)" />
        </clipPath>
    </defs>
</svg>